<svg xmlns="http://www.w3.org/2000/svg" viewBox="0 0 746.85 237.22"><g id="Layer_2" data-name="Layer 2"><g id="Layer_1-2" data-name="Layer 1"><path d="M173,51V69.4A4.64,4.64,0,0,1,168.37,74H63.7a4.64,4.64,0,0,0-4.64,4.64v153.9a4.64,4.64,0,0,1-4.64,4.64H36a4.64,4.64,0,0,1-4.64-4.64V78.68A4.64,4.64,0,0,0,26.73,74H4.64A4.64,4.64,0,0,1,0,69.4V51a4.64,4.64,0,0,1,4.64-4.64H168.37A4.64,4.64,0,0,1,173,51Z" fill="#3b6eb6"/><path d="M227.59,60.21a60.23,60.23,0,0,1-59.31,60.19H83.37a5.88,5.88,0,0,1-5.88-5.88V98.6a5.88,5.88,0,0,1,5.88-5.88h33.07l-.06-.09h50.87v-.07a32.47,32.47,0,0,0,2.39-64.86l-.5,0H5.88A5.88,5.88,0,0,1,0,21.8V5.88A5.88,5.88,0,0,1,5.88,0H167.24a60.27,60.27,0,0,1,60.35,60.21Z" fill="#2b3076"/><path d="M153.93,146.72v16.35h-22.2v67.45H111.31V163.07H89.11V146.72Z" fill="#0d0d0d"/><path d="M184.61,163.07v17H212v15.76H184.61v18.38h30.92v16.36H164.2v-83.8h51.33v16.35Z" fill="#0d0d0d"/><path d="M230.69,166.35a38.39,38.39,0,0,1,15-15.16,43.49,43.49,0,0,1,21.78-5.43q14.93,0,25.55,7.88a37.78,37.78,0,0,1,14.2,21.49H284.76a18.15,18.15,0,0,0-7.1-8,20,20,0,0,0-10.45-2.75A19.5,19.5,0,0,0,251.93,171q-5.85,6.57-5.85,17.55T251.93,206a19.5,19.5,0,0,0,15.28,6.57,19.92,19.92,0,0,0,10.45-2.75,18.12,18.12,0,0,0,7.1-8H307.2A37.51,37.51,0,0,1,293,223.29q-10.63,7.83-25.55,7.82a43.49,43.49,0,0,1-21.78-5.43,38.43,38.43,0,0,1-15-15.1,48.14,48.14,0,0,1,0-44.23Z" fill="#0d0d0d"/><path d="M392.32,146.72v83.8H371.9V196H340.15v34.5H319.74v-83.8h20.41v32.82H371.9V146.72Z" fill="#0d0d0d"/><path d="M467.52,187a24.52,24.52,0,0,1-10.27,9.73q-6.92,3.71-17.19,3.7H427.41v30.09H407v-83.8h33.06q10,0,17,3.46a23.83,23.83,0,0,1,10.38,9.55,27.72,27.72,0,0,1,3.46,14A26.93,26.93,0,0,1,467.52,187Zm-20.29-5.55c1.91-1.83,2.86-4.41,2.86-7.76s-.95-5.92-2.86-7.76-4.82-2.74-8.72-2.74h-11.1v21h11.1Q444.36,184.2,447.23,181.45Z" fill="#0d0d0d"/><path d="M501.9,163.07v17h27.34v15.76H501.9v18.38h30.92v16.36H481.49v-83.8h51.33v16.35Z" fill="#0d0d0d"/><path d="M600.62,152A37.52,37.52,0,0,1,616,166.71a46.78,46.78,0,0,1,0,43.75,37.32,37.32,0,0,1-15.4,14.8q-10,5.27-23.1,5.26H546.07v-83.8h31.39Q590.7,146.72,600.62,152Zm-6.45,54.55q6.45-6.33,6.45-17.9t-6.45-18q-6.43-6.45-18-6.45h-9.67v48.71h9.67Q587.73,212.85,594.17,206.52Z" fill="#0d0d0d"/><path d="M653.26,146.72v83.8H632.85v-83.8Z" fill="#0d0d0d"/><path d="M720.23,215.71H689l-5,14.81H662.57l30.32-83.8h23.64l30.32,83.8H725.24ZM715,200l-10.39-30.68L694.33,200Z" fill="#0d0d0d"/></g></g></svg>